<svg xmlns="http://www.w3.org/2000/svg" xmlns:xlink="http://www.w3.org/1999/xlink" fill="none" version="1.1" width="24" height="24" viewBox="0 0 24 24"><defs><clipPath id="master_svg0_76_5906"><rect x="0" y="0" width="24" height="24" rx="0"/></clipPath></defs><g clip-path="url(#master_svg0_76_5906)"><g><path d="M9,11.25L21.75,11.25Q21.8239,11.25,21.8963,11.26441Q21.9688,11.27882,22.037,11.30709Q22.1053,11.33536,22.1667,11.3764Q22.2281,11.41744,22.2803,11.46967Q22.3326,11.5219,22.3736,11.58332Q22.4146,11.64474,22.4429,11.71299Q22.4712,11.78123,22.4856,11.85368Q22.5,11.92613,22.5,12Q22.5,12.07387,22.4856,12.14632Q22.4712,12.21877,22.4429,12.28701Q22.4146,12.35526,22.3736,12.41668Q22.3326,12.4781,22.2803,12.53033Q22.2281,12.58256,22.1667,12.6236Q22.1053,12.66464,22.037,12.69291Q21.9688,12.72118,21.8963,12.73559Q21.8239,12.75,21.75,12.75L9,12.75Q8.92613,12.75,8.85368,12.73559Q8.78123,12.72118,8.71299,12.69291Q8.64474,12.66464,8.58332,12.6236Q8.5219,12.58256,8.46967,12.53033Q8.41744,12.4781,8.3764,12.41668Q8.33536,12.35526,8.30709,12.28701Q8.27882,12.21877,8.26441,12.14632Q8.25,12.07387,8.25,12Q8.25,11.92613,8.26441,11.85368Q8.27882,11.78123,8.30709,11.71299Q8.33536,11.64474,8.3764,11.58332Q8.41744,11.5219,8.46967,11.46967Q8.5219,11.41744,8.58332,11.3764Q8.64474,11.33536,8.71299,11.30709Q8.78123,11.27882,8.85368,11.26441Q8.92613,11.25,9,11.25ZM19.2803,8.46967L22.2803,11.46967Q22.3326,11.5219,22.3736,11.58332Q22.4146,11.64474,22.4429,11.71299Q22.4712,11.78123,22.4856,11.85368Q22.5,11.92613,22.5,12Q22.5,12.07387,22.4856,12.14632Q22.4712,12.21877,22.4429,12.28701Q22.4146,12.35526,22.3736,12.41668Q22.3326,12.4781,22.2803,12.53033Q22.2281,12.58256,22.1667,12.6236Q22.1053,12.66464,22.037,12.69291Q21.9688,12.72118,21.8963,12.73559Q21.8239,12.75,21.75,12.75Q21.6761,12.75,21.6037,12.73559Q21.5312,12.72118,21.463,12.69291Q21.3947,12.66464,21.3333,12.6236Q21.2719,12.58256,21.2197,12.53033L18.2197,9.53033Q18.1674,9.478100000000001,18.1264,9.41668Q18.0854,9.355260000000001,18.0571,9.28701Q18.0288,9.21877,18.014400000000002,9.14632Q18,9.07387,18,9Q18,8.92613,18.014400000000002,8.85368Q18.0288,8.78123,18.0571,8.71299Q18.0854,8.644739999999999,18.1264,8.58332Q18.1674,8.521899999999999,18.2197,8.46967Q18.271900000000002,8.41744,18.3333,8.3764Q18.3947,8.33536,18.463,8.307089999999999Q18.5312,8.27882,18.6037,8.26441Q18.676099999999998,8.25,18.75,8.25Q18.823900000000002,8.25,18.8963,8.26441Q18.9688,8.27882,19.037,8.307089999999999Q19.1053,8.33536,19.1667,8.3764Q19.228099999999998,8.41744,19.2803,8.46967ZM22.2803,12.53033L19.2803,15.5303Q19.228099999999998,15.5826,19.1667,15.6236Q19.1053,15.6646,19.037,15.6929Q18.9688,15.7212,18.8963,15.7356Q18.823900000000002,15.75,18.75,15.75Q18.676099999999998,15.75,18.6037,15.7356Q18.5312,15.7212,18.463,15.6929Q18.3947,15.6646,18.3333,15.6236Q18.271900000000002,15.5826,18.2197,15.5303Q18.1674,15.4781,18.1264,15.4167Q18.0854,15.3553,18.0571,15.287Q18.0288,15.2188,18.014400000000002,15.1463Q18,15.0739,18,15Q18,14.9261,18.014400000000002,14.8537Q18.0288,14.7812,18.0571,14.713Q18.0854,14.6447,18.1264,14.5833Q18.1674,14.5219,18.2197,14.4697L21.2197,11.46967Q21.2719,11.41744,21.3333,11.3764Q21.3947,11.33536,21.463,11.30709Q21.5312,11.27882,21.6037,11.26441Q21.6761,11.25,21.75,11.25Q21.8239,11.25,21.8963,11.26441Q21.9688,11.27882,22.037,11.30709Q22.1053,11.33536,22.1667,11.3764Q22.2281,11.41744,22.2803,11.46967Q22.3326,11.5219,22.3736,11.58332Q22.4146,11.64474,22.4429,11.71299Q22.4712,11.78123,22.4856,11.85368Q22.5,11.92613,22.5,12Q22.5,12.07387,22.4856,12.14632Q22.4712,12.21877,22.4429,12.28701Q22.4146,12.35526,22.3736,12.41668Q22.3326,12.4781,22.2803,12.53033ZM16.5,15L16.5,18.75Q16.5,19.9926,15.6213,20.8713Q14.74264,21.75,13.5,21.75L7.5,21.75Q6.25736,21.75,5.37868,20.8713Q4.5,19.9926,4.5,18.75L4.5,5.25Q4.5,4.00736,5.37868,3.128679Q6.25736,2.25,7.5,2.25L13.5,2.25Q14.74264,2.25,15.6213,3.128679Q16.5,4.00736,16.5,5.25L16.5,9Q16.5,9.07387,16.485599999999998,9.14632Q16.4712,9.21877,16.4429,9.28701Q16.4146,9.355260000000001,16.3736,9.41668Q16.3326,9.478100000000001,16.2803,9.53033Q16.228099999999998,9.58256,16.1667,9.6236Q16.1053,9.66464,16.037,9.692910000000001Q15.9688,9.72118,15.8963,9.73559Q15.8239,9.75,15.75,9.75Q15.6761,9.75,15.6037,9.73559Q15.5312,9.72118,15.463,9.692910000000001Q15.3947,9.66464,15.3333,9.6236Q15.2719,9.58256,15.21967,9.53033Q15.16744,9.478100000000001,15.1264,9.41668Q15.08536,9.355260000000001,15.05709,9.28701Q15.02882,9.21877,15.01441,9.14632Q15,9.07387,15,9L15,5.25Q15,4.62868,14.56066,4.18934Q14.12132,3.75,13.5,3.75L7.5,3.75Q6.87868,3.75,6.43934,4.18934Q6,4.62868,6,5.25L6,18.75Q6,19.3713,6.43934,19.8107Q6.87868,20.25,7.5,20.25L13.5,20.25Q14.12132,20.25,14.56066,19.8107Q15,19.3713,15,18.75L15,15Q15,14.9261,15.01441,14.8537Q15.02882,14.7812,15.05709,14.713Q15.08536,14.6447,15.1264,14.5833Q15.16744,14.5219,15.21967,14.4697Q15.2719,14.4174,15.3333,14.3764Q15.3947,14.3354,15.463,14.3071Q15.5312,14.2788,15.6037,14.2644Q15.6761,14.25,15.75,14.25Q15.8239,14.25,15.8963,14.2644Q15.9688,14.2788,16.037,14.3071Q16.1053,14.3354,16.1667,14.3764Q16.228099999999998,14.4174,16.2803,14.4697Q16.3326,14.5219,16.3736,14.5833Q16.4146,14.6447,16.4429,14.713Q16.4712,14.7812,16.485599999999998,14.8537Q16.5,14.9261,16.5,15ZM9.75,12Q9.75,12.07387,9.73559,12.14632Q9.72118,12.21877,9.692910000000001,12.28701Q9.66464,12.35526,9.6236,12.41668Q9.58256,12.4781,9.53033,12.53033Q9.478100000000001,12.58256,9.41668,12.6236Q9.355260000000001,12.66464,9.28701,12.69291Q9.21877,12.72118,9.14632,12.73559Q9.07387,12.75,9,12.75Q8.92613,12.75,8.85368,12.73559Q8.78123,12.72118,8.71299,12.69291Q8.64474,12.66464,8.58332,12.6236Q8.5219,12.58256,8.46967,12.53033Q8.41744,12.4781,8.3764,12.41668Q8.33536,12.35526,8.30709,12.28701Q8.27882,12.21877,8.26441,12.14632Q8.25,12.07387,8.25,12Q8.25,11.92613,8.26441,11.85368Q8.27882,11.78123,8.30709,11.71299Q8.33536,11.64474,8.3764,11.58332Q8.41744,11.5219,8.46967,11.46967Q8.5219,11.41744,8.58332,11.3764Q8.64474,11.33536,8.71299,11.30709Q8.78123,11.27882,8.85368,11.26441Q8.92613,11.25,9,11.25Q9.07387,11.25,9.14632,11.26441Q9.21877,11.27882,9.28701,11.30709Q9.355260000000001,11.33536,9.41668,11.3764Q9.478100000000001,11.41744,9.53033,11.46967Q9.58256,11.5219,9.6236,11.58332Q9.66464,11.64474,9.692910000000001,11.71299Q9.72118,11.78123,9.73559,11.85368Q9.75,11.92613,9.75,12ZM22.5,12Q22.5,12.07387,22.4856,12.14632Q22.4712,12.21877,22.4429,12.28701Q22.4146,12.35526,22.3736,12.41668Q22.3326,12.4781,22.2803,12.53033Q22.2281,12.58256,22.1667,12.6236Q22.1053,12.66464,22.037,12.69291Q21.9688,12.72118,21.8963,12.73559Q21.8239,12.75,21.75,12.75Q21.6761,12.75,21.6037,12.73559Q21.5312,12.72118,21.463,12.69291Q21.3947,12.66464,21.3333,12.6236Q21.2719,12.58256,21.2197,12.53033Q21.1674,12.4781,21.1264,12.41668Q21.0854,12.35526,21.0571,12.28701Q21.0288,12.21877,21.014400000000002,12.14632Q21,12.07387,21,12Q21,11.92613,21.014400000000002,11.85368Q21.0288,11.78123,21.0571,11.71299Q21.0854,11.64474,21.1264,11.58332Q21.1674,11.5219,21.2197,11.46967Q21.2719,11.41744,21.3333,11.3764Q21.3947,11.33536,21.463,11.30709Q21.5312,11.27882,21.6037,11.26441Q21.6761,11.25,21.75,11.25Q21.8239,11.25,21.8963,11.26441Q21.9688,11.27882,22.037,11.30709Q22.1053,11.33536,22.1667,11.3764Q22.2281,11.41744,22.2803,11.46967Q22.3326,11.5219,22.3736,11.58332Q22.4146,11.64474,22.4429,11.71299Q22.4712,11.78123,22.4856,11.85368Q22.5,11.92613,22.5,12ZM19.5,9Q19.5,9.07387,19.485599999999998,9.14632Q19.4712,9.21877,19.4429,9.28701Q19.4146,9.355260000000001,19.3736,9.41668Q19.3326,9.478100000000001,19.2803,9.53033Q19.228099999999998,9.58256,19.1667,9.6236Q19.1053,9.66464,19.037,9.692910000000001Q18.9688,9.72118,18.8963,9.73559Q18.823900000000002,9.75,18.75,9.75Q18.676099999999998,9.75,18.6037,9.73559Q18.5312,9.72118,18.463,9.692910000000001Q18.3947,9.66464,18.3333,9.6236Q18.271900000000002,9.58256,18.2197,9.53033Q18.1674,9.478100000000001,18.1264,9.41668Q18.0854,9.355260000000001,18.0571,9.28701Q18.0288,9.21877,18.014400000000002,9.14632Q18,9.07387,18,9Q18,8.92613,18.014400000000002,8.85368Q18.0288,8.78123,18.0571,8.71299Q18.0854,8.644739999999999,18.1264,8.58332Q18.1674,8.521899999999999,18.2197,8.46967Q18.271900000000002,8.41744,18.3333,8.3764Q18.3947,8.33536,18.463,8.307089999999999Q18.5312,8.27882,18.6037,8.26441Q18.676099999999998,8.25,18.75,8.25Q18.823900000000002,8.25,18.8963,8.26441Q18.9688,8.27882,19.037,8.307089999999999Q19.1053,8.33536,19.1667,8.3764Q19.228099999999998,8.41744,19.2803,8.46967Q19.3326,8.521899999999999,19.3736,8.58332Q19.4146,8.644739999999999,19.4429,8.71299Q19.4712,8.78123,19.485599999999998,8.85368Q19.5,8.92613,19.5,9ZM22.5,12Q22.5,12.07387,22.4856,12.14632Q22.4712,12.21877,22.4429,12.28701Q22.4146,12.35526,22.3736,12.41668Q22.3326,12.4781,22.2803,12.53033Q22.2281,12.58256,22.1667,12.6236Q22.1053,12.66464,22.037,12.69291Q21.9688,12.72118,21.8963,12.73559Q21.8239,12.75,21.75,12.75Q21.6761,12.75,21.6037,12.73559Q21.5312,12.72118,21.463,12.69291Q21.3947,12.66464,21.3333,12.6236Q21.2719,12.58256,21.2197,12.53033Q21.1674,12.4781,21.1264,12.41668Q21.0854,12.35526,21.0571,12.28701Q21.0288,12.21877,21.014400000000002,12.14632Q21,12.07387,21,12Q21,11.92613,21.014400000000002,11.85368Q21.0288,11.78123,21.0571,11.71299Q21.0854,11.64474,21.1264,11.58332Q21.1674,11.5219,21.2197,11.46967Q21.2719,11.41744,21.3333,11.3764Q21.3947,11.33536,21.463,11.30709Q21.5312,11.27882,21.6037,11.26441Q21.6761,11.25,21.75,11.25Q21.8239,11.25,21.8963,11.26441Q21.9688,11.27882,22.037,11.30709Q22.1053,11.33536,22.1667,11.3764Q22.2281,11.41744,22.2803,11.46967Q22.3326,11.5219,22.3736,11.58332Q22.4146,11.64474,22.4429,11.71299Q22.4712,11.78123,22.4856,11.85368Q22.5,11.92613,22.5,12ZM16.5,9Q16.5,9.07387,16.485599999999998,9.14632Q16.4712,9.21877,16.4429,9.28701Q16.4146,9.355260000000001,16.3736,9.41668Q16.3326,9.478100000000001,16.2803,9.53033Q16.228099999999998,9.58256,16.1667,9.6236Q16.1053,9.66464,16.037,9.692910000000001Q15.9688,9.72118,15.8963,9.73559Q15.8239,9.75,15.75,9.75Q15.6761,9.75,15.6037,9.73559Q15.5312,9.72118,15.463,9.692910000000001Q15.3947,9.66464,15.3333,9.6236Q15.2719,9.58256,15.21967,9.53033Q15.16744,9.478100000000001,15.1264,9.41668Q15.08536,9.355260000000001,15.05709,9.28701Q15.02882,9.21877,15.01441,9.14632Q15,9.07387,15,9Q15,8.92613,15.01441,8.85368Q15.02882,8.78123,15.05709,8.71299Q15.08536,8.644739999999999,15.1264,8.58332Q15.16744,8.521899999999999,15.21967,8.46967Q15.2719,8.41744,15.3333,8.3764Q15.3947,8.33536,15.463,8.307089999999999Q15.5312,8.27882,15.6037,8.26441Q15.6761,8.25,15.75,8.25Q15.8239,8.25,15.8963,8.26441Q15.9688,8.27882,16.037,8.307089999999999Q16.1053,8.33536,16.1667,8.3764Q16.228099999999998,8.41744,16.2803,8.46967Q16.3326,8.521899999999999,16.3736,8.58332Q16.4146,8.644739999999999,16.4429,8.71299Q16.4712,8.78123,16.485599999999998,8.85368Q16.5,8.92613,16.5,9ZM22.5,12Q22.5,12.07387,22.4856,12.14632Q22.4712,12.21877,22.4429,12.28701Q22.4146,12.35526,22.3736,12.41668Q22.3326,12.4781,22.2803,12.53033Q22.2281,12.58256,22.1667,12.6236Q22.1053,12.66464,22.037,12.69291Q21.9688,12.72118,21.8963,12.73559Q21.8239,12.75,21.75,12.75Q21.6761,12.75,21.6037,12.73559Q21.5312,12.72118,21.463,12.69291Q21.3947,12.66464,21.3333,12.6236Q21.2719,12.58256,21.2197,12.53033Q21.1674,12.4781,21.1264,12.41668Q21.0854,12.35526,21.0571,12.28701Q21.0288,12.21877,21.014400000000002,12.14632Q21,12.07387,21,12Q21,11.92613,21.014400000000002,11.85368Q21.0288,11.78123,21.0571,11.71299Q21.0854,11.64474,21.1264,11.58332Q21.1674,11.5219,21.2197,11.46967Q21.2719,11.41744,21.3333,11.3764Q21.3947,11.33536,21.463,11.30709Q21.5312,11.27882,21.6037,11.26441Q21.6761,11.25,21.75,11.25Q21.8239,11.25,21.8963,11.26441Q21.9688,11.27882,22.037,11.30709Q22.1053,11.33536,22.1667,11.3764Q22.2281,11.41744,22.2803,11.46967Q22.3326,11.5219,22.3736,11.58332Q22.4146,11.64474,22.4429,11.71299Q22.4712,11.78123,22.4856,11.85368Q22.5,11.92613,22.5,12ZM16.5,15Q16.5,15.0739,16.485599999999998,15.1463Q16.4712,15.2188,16.4429,15.287Q16.4146,15.3553,16.3736,15.4167Q16.3326,15.4781,16.2803,15.5303Q16.228099999999998,15.5826,16.1667,15.6236Q16.1053,15.6646,16.037,15.6929Q15.9688,15.7212,15.8963,15.7356Q15.8239,15.75,15.75,15.75Q15.6761,15.75,15.6037,15.7356Q15.5312,15.7212,15.463,15.6929Q15.3947,15.6646,15.3333,15.6236Q15.2719,15.5826,15.21967,15.5303Q15.16744,15.4781,15.1264,15.4167Q15.08536,15.3553,15.05709,15.287Q15.02882,15.2188,15.01441,15.1463Q15,15.0739,15,15Q15,14.9261,15.01441,14.8537Q15.02882,14.7812,15.05709,14.713Q15.08536,14.6447,15.1264,14.5833Q15.16744,14.5219,15.21967,14.4697Q15.2719,14.4174,15.3333,14.3764Q15.3947,14.3354,15.463,14.3071Q15.5312,14.2788,15.6037,14.2644Q15.6761,14.25,15.75,14.25Q15.8239,14.25,15.8963,14.2644Q15.9688,14.2788,16.037,14.3071Q16.1053,14.3354,16.1667,14.3764Q16.228099999999998,14.4174,16.2803,14.4697Q16.3326,14.5219,16.3736,14.5833Q16.4146,14.6447,16.4429,14.713Q16.4712,14.7812,16.485599999999998,14.8537Q16.5,14.9261,16.5,15ZM19.5,15Q19.5,15.0739,19.485599999999998,15.1463Q19.4712,15.2188,19.4429,15.287Q19.4146,15.3553,19.3736,15.4167Q19.3326,15.4781,19.2803,15.5303Q19.228099999999998,15.5826,19.1667,15.6236Q19.1053,15.6646,19.037,15.6929Q18.9688,15.7212,18.8963,15.7356Q18.823900000000002,15.75,18.75,15.75Q18.676099999999998,15.75,18.6037,15.7356Q18.5312,15.7212,18.463,15.6929Q18.3947,15.6646,18.3333,15.6236Q18.271900000000002,15.5826,18.2197,15.5303Q18.1674,15.4781,18.1264,15.4167Q18.0854,15.3553,18.0571,15.287Q18.0288,15.2188,18.014400000000002,15.1463Q18,15.0739,18,15Q18,14.9261,18.014400000000002,14.8537Q18.0288,14.7812,18.0571,14.713Q18.0854,14.6447,18.1264,14.5833Q18.1674,14.5219,18.2197,14.4697Q18.271900000000002,14.4174,18.3333,14.3764Q18.3947,14.3354,18.463,14.3071Q18.5312,14.2788,18.6037,14.2644Q18.676099999999998,14.25,18.75,14.25Q18.823900000000002,14.25,18.8963,14.2644Q18.9688,14.2788,19.037,14.3071Q19.1053,14.3354,19.1667,14.3764Q19.228099999999998,14.4174,19.2803,14.4697Q19.3326,14.5219,19.3736,14.5833Q19.4146,14.6447,19.4429,14.713Q19.4712,14.7812,19.485599999999998,14.8537Q19.5,14.9261,19.5,15Z" fill="#000000" fill-opacity="1"/></g></g></svg>