<svg xmlns="http://www.w3.org/2000/svg" xmlns:xlink="http://www.w3.org/1999/xlink" fill="none" version="1.1" width="24" height="24" viewBox="0 0 24 24"><defs><clipPath id="master_svg0_94_5830"><rect x="0" y="0" width="24" height="24" rx="0"/></clipPath></defs><g clip-path="url(#master_svg0_94_5830)"><g><path d="M21,12.75L3,12.75Q2.9261315,12.75,2.853682,12.73559Q2.781233,12.72118,2.712987,12.692910000000001Q2.644742,12.66464,2.583322,12.6236Q2.521903,12.58256,2.46967,12.53033Q2.417437,12.478100000000001,2.376398,12.41668Q2.335359,12.355260000000001,2.30709,12.28701Q2.278822,12.21877,2.264411,12.14632Q2.25,12.07387,2.25,12Q2.25,11.92613,2.264411,11.85368Q2.278822,11.78123,2.30709,11.71299Q2.335359,11.64474,2.376398,11.58332Q2.417437,11.5219,2.46967,11.46967Q2.521903,11.41744,2.583322,11.3764Q2.644742,11.33536,2.712987,11.30709Q2.781233,11.27882,2.853682,11.26441Q2.9261315,11.25,3,11.25L21,11.25Q21.0739,11.25,21.1463,11.26441Q21.2188,11.27882,21.287,11.30709Q21.3553,11.33536,21.4167,11.3764Q21.4781,11.41744,21.5303,11.46967Q21.5826,11.5219,21.6236,11.58332Q21.6646,11.64474,21.6929,11.71299Q21.7212,11.78123,21.7356,11.85368Q21.75,11.92613,21.75,12Q21.75,12.07387,21.7356,12.14632Q21.7212,12.21877,21.6929,12.28701Q21.6646,12.355260000000001,21.6236,12.41668Q21.5826,12.478100000000001,21.5303,12.53033Q21.4781,12.58256,21.4167,12.6236Q21.3553,12.66464,21.287,12.692910000000001Q21.2188,12.72118,21.1463,12.73559Q21.0739,12.75,21,12.75ZM7.28033,8.78033L3.53033,12.53033Q3.478097,12.58256,3.416678,12.6236Q3.355258,12.66464,3.287013,12.692910000000001Q3.218767,12.72118,3.146318,12.73559Q3.0738685,12.75,3,12.75Q2.9261315,12.75,2.853682,12.73559Q2.781233,12.72118,2.712987,12.692910000000001Q2.644742,12.66464,2.583322,12.6236Q2.521903,12.58256,2.46967,12.53033Q2.417437,12.478100000000001,2.376398,12.41668Q2.335359,12.355260000000001,2.30709,12.28701Q2.278822,12.21877,2.264411,12.14632Q2.25,12.07387,2.25,12Q2.25,11.92613,2.264411,11.85368Q2.278822,11.78123,2.30709,11.71299Q2.335359,11.64474,2.376398,11.58332Q2.417437,11.5219,2.46967,11.46967L6.21967,7.71967Q6.2719000000000005,7.667437,6.3333200000000005,7.626398Q6.3947400000000005,7.585359,6.46299,7.55709Q6.53123,7.528822,6.603680000000001,7.514411Q6.676130000000001,7.5,6.75,7.5Q6.823869999999999,7.5,6.896319999999999,7.514411Q6.96877,7.528822,7.03701,7.55709Q7.10526,7.585359,7.16668,7.626398Q7.2281,7.667437,7.28033,7.71967Q7.33256,7.771903,7.3736,7.833322Q7.41464,7.894742,7.44291,7.962987Q7.47118,8.031233,7.48559,8.103682Q7.5,8.1761315,7.5,8.25Q7.5,8.3238685,7.48559,8.396318Q7.47118,8.468767,7.44291,8.537013Q7.41464,8.605258,7.3736,8.666678Q7.33256,8.728097,7.28033,8.78033ZM3.53033,11.46967L7.28033,15.21967Q7.33256,15.271899999999999,7.3736,15.33332Q7.41464,15.394739999999999,7.44291,15.46299Q7.47118,15.53123,7.48559,15.60368Q7.5,15.67613,7.5,15.75Q7.5,15.82387,7.48559,15.89632Q7.47118,15.96877,7.44291,16.037010000000002Q7.41464,16.10526,7.3736,16.16668Q7.33256,16.2281,7.28033,16.28033Q7.2281,16.33256,7.16668,16.3736Q7.10526,16.41464,7.03701,16.442909999999998Q6.96877,16.47118,6.896319999999999,16.485590000000002Q6.823869999999999,16.5,6.75,16.5Q6.676130000000001,16.5,6.603680000000001,16.485590000000002Q6.53123,16.47118,6.46299,16.442909999999998Q6.3947400000000005,16.41464,6.3333200000000005,16.3736Q6.2719000000000005,16.33256,6.21967,16.28033L2.46967,12.53033Q2.417437,12.478100000000001,2.376398,12.41668Q2.335359,12.355260000000001,2.30709,12.28701Q2.278822,12.21877,2.264411,12.14632Q2.25,12.07387,2.25,12Q2.25,11.92613,2.264411,11.85368Q2.278822,11.78123,2.30709,11.71299Q2.335359,11.64474,2.376398,11.58332Q2.417437,11.5219,2.46967,11.46967Q2.521903,11.41744,2.583322,11.3764Q2.644742,11.33536,2.712987,11.30709Q2.781233,11.27882,2.853682,11.26441Q2.9261315,11.25,3,11.25Q3.0738685,11.25,3.146318,11.26441Q3.218767,11.27882,3.287013,11.30709Q3.355258,11.33536,3.416678,11.3764Q3.478097,11.41744,3.53033,11.46967ZM21.75,12Q21.75,12.07387,21.7356,12.14632Q21.7212,12.21877,21.6929,12.28701Q21.6646,12.355260000000001,21.6236,12.41668Q21.5826,12.478100000000001,21.5303,12.53033Q21.4781,12.58256,21.4167,12.6236Q21.3553,12.66464,21.287,12.692910000000001Q21.2188,12.72118,21.1463,12.73559Q21.0739,12.75,21,12.75Q20.9261,12.75,20.8537,12.73559Q20.7812,12.72118,20.713,12.692910000000001Q20.6447,12.66464,20.5833,12.6236Q20.5219,12.58256,20.4697,12.53033Q20.4174,12.478100000000001,20.3764,12.41668Q20.3354,12.355260000000001,20.3071,12.28701Q20.2788,12.21877,20.2644,12.14632Q20.25,12.07387,20.25,12Q20.25,11.92613,20.2644,11.85368Q20.2788,11.78123,20.3071,11.71299Q20.3354,11.64474,20.3764,11.58332Q20.4174,11.5219,20.4697,11.46967Q20.5219,11.41744,20.5833,11.3764Q20.6447,11.33536,20.713,11.30709Q20.7812,11.27882,20.8537,11.26441Q20.9261,11.25,21,11.25Q21.0739,11.25,21.1463,11.26441Q21.2188,11.27882,21.287,11.30709Q21.3553,11.33536,21.4167,11.3764Q21.4781,11.41744,21.5303,11.46967Q21.5826,11.5219,21.6236,11.58332Q21.6646,11.64474,21.6929,11.71299Q21.7212,11.78123,21.7356,11.85368Q21.75,11.92613,21.75,12ZM3.75,12Q3.75,12.07387,3.735589,12.14632Q3.721178,12.21877,3.69291,12.28701Q3.664641,12.355260000000001,3.623602,12.41668Q3.582563,12.478100000000001,3.53033,12.53033Q3.478097,12.58256,3.416678,12.6236Q3.355258,12.66464,3.287013,12.692910000000001Q3.218767,12.72118,3.146318,12.73559Q3.0738685,12.75,3,12.75Q2.9261315,12.75,2.853682,12.73559Q2.781233,12.72118,2.712987,12.692910000000001Q2.644742,12.66464,2.583322,12.6236Q2.521903,12.58256,2.46967,12.53033Q2.417437,12.478100000000001,2.376398,12.41668Q2.335359,12.355260000000001,2.30709,12.28701Q2.278822,12.21877,2.264411,12.14632Q2.25,12.07387,2.25,12Q2.25,11.92613,2.264411,11.85368Q2.278822,11.78123,2.30709,11.71299Q2.335359,11.64474,2.376398,11.58332Q2.417437,11.5219,2.46967,11.46967Q2.521903,11.41744,2.583322,11.3764Q2.644742,11.33536,2.712987,11.30709Q2.781233,11.27882,2.853682,11.26441Q2.9261315,11.25,3,11.25Q3.0738685,11.25,3.146318,11.26441Q3.218767,11.27882,3.287013,11.30709Q3.355258,11.33536,3.416678,11.3764Q3.478097,11.41744,3.53033,11.46967Q3.582563,11.5219,3.623602,11.58332Q3.664641,11.64474,3.69291,11.71299Q3.721178,11.78123,3.735589,11.85368Q3.75,11.92613,3.75,12ZM7.5,8.25Q7.5,8.3238685,7.48559,8.396318Q7.47118,8.468767,7.44291,8.537013Q7.41464,8.605258,7.3736,8.666678Q7.33256,8.728097,7.28033,8.78033Q7.2281,8.832563,7.16668,8.873602Q7.10526,8.914641,7.03701,8.94291Q6.96877,8.971178,6.896319999999999,8.985589000000001Q6.823869999999999,9,6.75,9Q6.676130000000001,9,6.603680000000001,8.985589000000001Q6.53123,8.971178,6.46299,8.94291Q6.3947400000000005,8.914641,6.3333200000000005,8.873602Q6.2719000000000005,8.832563,6.21967,8.78033Q6.16744,8.728097,6.1264,8.666678Q6.08536,8.605258,6.0570900000000005,8.537013Q6.02882,8.468767,6.01441,8.396318Q6,8.3238685,6,8.25Q6,8.1761315,6.01441,8.103682Q6.02882,8.031233,6.0570900000000005,7.962987Q6.08536,7.894742,6.1264,7.833322Q6.16744,7.771903,6.21967,7.71967Q6.2719000000000005,7.667437,6.3333200000000005,7.626398Q6.3947400000000005,7.585359,6.46299,7.55709Q6.53123,7.528822,6.603680000000001,7.514411Q6.676130000000001,7.5,6.75,7.5Q6.823869999999999,7.5,6.896319999999999,7.514411Q6.96877,7.528822,7.03701,7.55709Q7.10526,7.585359,7.16668,7.626398Q7.2281,7.667437,7.28033,7.71967Q7.33256,7.771903,7.3736,7.833322Q7.41464,7.894742,7.44291,7.962987Q7.47118,8.031233,7.48559,8.103682Q7.5,8.1761315,7.5,8.25ZM3.75,12Q3.75,12.07387,3.735589,12.14632Q3.721178,12.21877,3.69291,12.28701Q3.664641,12.355260000000001,3.623602,12.41668Q3.582563,12.478100000000001,3.53033,12.53033Q3.478097,12.58256,3.416678,12.6236Q3.355258,12.66464,3.287013,12.692910000000001Q3.218767,12.72118,3.146318,12.73559Q3.0738685,12.75,3,12.75Q2.9261315,12.75,2.853682,12.73559Q2.781233,12.72118,2.712987,12.692910000000001Q2.644742,12.66464,2.583322,12.6236Q2.521903,12.58256,2.46967,12.53033Q2.417437,12.478100000000001,2.376398,12.41668Q2.335359,12.355260000000001,2.30709,12.28701Q2.278822,12.21877,2.264411,12.14632Q2.25,12.07387,2.25,12Q2.25,11.92613,2.264411,11.85368Q2.278822,11.78123,2.30709,11.71299Q2.335359,11.64474,2.376398,11.58332Q2.417437,11.5219,2.46967,11.46967Q2.521903,11.41744,2.583322,11.3764Q2.644742,11.33536,2.712987,11.30709Q2.781233,11.27882,2.853682,11.26441Q2.9261315,11.25,3,11.25Q3.0738685,11.25,3.146318,11.26441Q3.218767,11.27882,3.287013,11.30709Q3.355258,11.33536,3.416678,11.3764Q3.478097,11.41744,3.53033,11.46967Q3.582563,11.5219,3.623602,11.58332Q3.664641,11.64474,3.69291,11.71299Q3.721178,11.78123,3.735589,11.85368Q3.75,11.92613,3.75,12ZM3.75,12Q3.75,12.07387,3.735589,12.14632Q3.721178,12.21877,3.69291,12.28701Q3.664641,12.355260000000001,3.623602,12.41668Q3.582563,12.478100000000001,3.53033,12.53033Q3.478097,12.58256,3.416678,12.6236Q3.355258,12.66464,3.287013,12.692910000000001Q3.218767,12.72118,3.146318,12.73559Q3.0738685,12.75,3,12.75Q2.9261315,12.75,2.853682,12.73559Q2.781233,12.72118,2.712987,12.692910000000001Q2.644742,12.66464,2.583322,12.6236Q2.521903,12.58256,2.46967,12.53033Q2.417437,12.478100000000001,2.376398,12.41668Q2.335359,12.355260000000001,2.30709,12.28701Q2.278822,12.21877,2.264411,12.14632Q2.25,12.07387,2.25,12Q2.25,11.92613,2.264411,11.85368Q2.278822,11.78123,2.30709,11.71299Q2.335359,11.64474,2.376398,11.58332Q2.417437,11.5219,2.46967,11.46967Q2.521903,11.41744,2.583322,11.3764Q2.644742,11.33536,2.712987,11.30709Q2.781233,11.27882,2.853682,11.26441Q2.9261315,11.25,3,11.25Q3.0738685,11.25,3.146318,11.26441Q3.218767,11.27882,3.287013,11.30709Q3.355258,11.33536,3.416678,11.3764Q3.478097,11.41744,3.53033,11.46967Q3.582563,11.5219,3.623602,11.58332Q3.664641,11.64474,3.69291,11.71299Q3.721178,11.78123,3.735589,11.85368Q3.75,11.92613,3.75,12ZM7.5,15.75Q7.5,15.82387,7.48559,15.89632Q7.47118,15.96877,7.44291,16.037010000000002Q7.41464,16.10526,7.3736,16.16668Q7.33256,16.2281,7.28033,16.28033Q7.2281,16.33256,7.16668,16.3736Q7.10526,16.41464,7.03701,16.442909999999998Q6.96877,16.47118,6.896319999999999,16.485590000000002Q6.823869999999999,16.5,6.75,16.5Q6.676130000000001,16.5,6.603680000000001,16.485590000000002Q6.53123,16.47118,6.46299,16.442909999999998Q6.3947400000000005,16.41464,6.3333200000000005,16.3736Q6.2719000000000005,16.33256,6.21967,16.28033Q6.16744,16.2281,6.1264,16.16668Q6.08536,16.10526,6.0570900000000005,16.037010000000002Q6.02882,15.96877,6.01441,15.89632Q6,15.82387,6,15.75Q6,15.67613,6.01441,15.60368Q6.02882,15.53123,6.0570900000000005,15.46299Q6.08536,15.394739999999999,6.1264,15.33332Q6.16744,15.271899999999999,6.21967,15.21967Q6.2719000000000005,15.16744,6.3333200000000005,15.1264Q6.3947400000000005,15.08536,6.46299,15.057089999999999Q6.53123,15.02882,6.603680000000001,15.01441Q6.676130000000001,15,6.75,15Q6.823869999999999,15,6.896319999999999,15.01441Q6.96877,15.02882,7.03701,15.057089999999999Q7.10526,15.08536,7.16668,15.1264Q7.2281,15.16744,7.28033,15.21967Q7.33256,15.271899999999999,7.3736,15.33332Q7.41464,15.394739999999999,7.44291,15.46299Q7.47118,15.53123,7.48559,15.60368Q7.5,15.67613,7.5,15.75Z" fill="#000000" fill-opacity="1"/></g></g></svg>