<svg xmlns="http://www.w3.org/2000/svg" xmlns:xlink="http://www.w3.org/1999/xlink" fill="none" version="1.1" width="24" height="24" viewBox="0 0 24 24"><defs><clipPath id="master_svg0_137_5835"><rect x="0" y="0" width="24" height="24" rx="0"/></clipPath></defs><g clip-path="url(#master_svg0_137_5835)"><g><path d="M12,1.5C9.1005,1.499999642372,6.75,3.8505,6.75,6.75L6.75,9.75C5.09315,9.75,3.75,11.09315,3.75,12.75L3.75,19.5C3.75,21.1569,5.09315,22.5,6.75,22.5L17.25,22.5C18.9069,22.5,20.25,21.1569,20.25,19.5L20.25,12.75C20.25,11.09315,18.9069,9.75,17.25,9.75L17.25,6.75C17.25,3.85,14.9,1.5,12,1.5ZM15.75,9.75L15.75,6.75C15.75,4.678929999999999,14.0711,3,12,3C9.928930000000001,3,8.25,4.678929999999999,8.25,6.75L8.25,9.75L15.75,9.75Z" fill-rule="evenodd" fill="#000000" fill-opacity="1"/></g></g></svg>