<svg xmlns="http://www.w3.org/2000/svg" xmlns:xlink="http://www.w3.org/1999/xlink" fill="none" version="1.1" width="24" height="24" viewBox="0 0 24 24"><defs><clipPath id="master_svg0_344_02402"><rect x="0" y="0" width="24" height="24" rx="0"/></clipPath></defs><g clip-path="url(#master_svg0_344_02402)"><g><path d="M1.5,4.5C1.499999761581,2.84315,2.84315,1.5,4.5,1.5L5.872,1.5C6.732,1.5,7.482,2.086,7.691,2.92L8.796,7.343C8.97908,8.07494,8.7056,8.845320000000001,8.102,9.298L6.809,10.268C6.674,10.369,6.645,10.517,6.683,10.62C7.82525,13.7264,10.2736,16.174799999999998,13.38,17.317C13.483,17.355,13.63,17.326,13.732,17.191000000000003L14.702,15.898C15.1547,15.2944,15.9251,15.0209,16.657,15.204L21.08,16.308999999999997C21.914,16.518,22.5,17.268,22.5,18.129L22.5,19.5C22.5,21.1569,21.1569,22.5,19.5,22.5L17.25,22.5C8.552,22.5,1.5,15.448,1.5,6.75L1.5,4.5Z" fill-rule="evenodd" fill="#000000" fill-opacity="1"/></g></g></svg>