<svg width="25" height="25" viewBox="0 0 25 25" fill="none" xmlns="http://www.w3.org/2000/svg">
<path d="M12.2306 3.85674C12.4228 3.39476 13.0772 3.39476 13.2694 3.85674L15.3953 8.96819C15.4763 9.16295 15.6595 9.29602 15.8698 9.31288L21.388 9.75527C21.8867 9.79526 22.089 10.4177 21.709 10.7432L17.5047 14.3446C17.3445 14.4818 17.2745 14.6972 17.3235 14.9023L18.6079 20.2872C18.724 20.7739 18.1946 21.1586 17.7676 20.8978L13.0432 18.0121C12.8632 17.9022 12.6368 17.9022 12.4568 18.0121L7.7324 20.8978C7.30541 21.1586 6.77595 20.7739 6.89205 20.2872L8.17653 14.9023C8.22548 14.6972 8.15552 14.4818 7.99532 14.3446L3.791 10.7432C3.41101 10.4177 3.61324 9.79526 4.11199 9.75527L9.63023 9.31288C9.84049 9.29602 10.0236 9.16295 10.1047 8.96819L12.2306 3.85674Z" stroke="#0F172A" stroke-width="1.5" stroke-linecap="round" stroke-linejoin="round"/>
</svg>
