<svg width="24" height="24" viewBox="0 0 24 24" fill="none" xmlns="http://www.w3.org/2000/svg">
<path d="M15.75 9.75H10.875C9.42525 9.75 8.25 10.9253 8.25 12.375C8.25 13.8247 9.42525 15 10.875 15H12M15.75 9.75L13.5 7.5M15.75 9.75L13.5 12M4.5 4.75699V21.75L8.25 20.25L12 21.75L15.75 20.25L19.5 21.75V4.75699C19.5 3.649 18.6939 2.70014 17.5933 2.57241C15.7584 2.35947 13.892 2.25 12 2.25C10.108 2.25 8.24156 2.35947 6.40668 2.57241C5.30608 2.70014 4.5 3.649 4.5 4.75699Z" stroke="#0F172A" stroke-width="1.5" stroke-linecap="round" stroke-linejoin="round"/>
</svg>
