<svg width="24" height="25" viewBox="0 0 24 25" fill="none" xmlns="http://www.w3.org/2000/svg">
<path d="M16.4867 5.46958L18.1742 3.78208C18.9064 3.04985 20.0936 3.04985 20.8258 3.78208C21.5581 4.51432 21.5581 5.7015 20.8258 6.43374L10.2072 17.0524C9.67851 17.5811 9.02644 17.9697 8.30989 18.1831L5.625 18.9829L6.42478 16.298C6.63823 15.5815 7.02685 14.9294 7.55552 14.4007L16.4867 5.46958ZM16.4867 5.46958L19.125 8.1079M17.625 14.9829V19.7329C17.625 20.9755 16.6176 21.9829 15.375 21.9829H4.875C3.63236 21.9829 2.625 20.9755 2.625 19.7329V9.2329C2.625 7.99026 3.63236 6.9829 4.875 6.9829H9.625" stroke="#0F172A" stroke-width="1.5" stroke-linecap="round" stroke-linejoin="round"/>
</svg>
