<svg xmlns="http://www.w3.org/2000/svg" xmlns:xlink="http://www.w3.org/1999/xlink" fill="none" version="1.1" width="24" height="24" viewBox="0 0 24 24"><defs><clipPath id="master_svg0_76_5902"><rect x="0" y="0" width="24" height="24" rx="0"/></clipPath></defs><g clip-path="url(#master_svg0_76_5902)"><g><path d="M14.625,3.7529296875C13.18462,3.7529296875,11.74445,4.3014496875,10.64795,5.3979496875L5.39795,10.647949687499999C4.335574,11.7103196875,3.75,13.1223696875,3.75,14.6250296875C3.75,16.1276296875,4.335574,17.5396296875,5.39795,18.6020296875C6.49407,19.6985296875,7.935,20.2470296875,9.375,20.2470296875C10.815000000000001,20.2470296875,12.25555,19.6985296875,13.35205,18.6020296875L18.6021,13.3520496875C19.6644,12.2896796875,20.25,10.8776296875,20.25,9.3749996875C20.25,7.8723796875,19.6644,6.4603196875,18.6021,5.3979496875C17.5059,4.3010746875,16.0654,3.7529296875,14.625,3.7529296875ZM14.625,5.2521996875C15.681,5.2521996875,16.737099999999998,5.6544996874999995,17.5415,6.4584996875C18.3208,7.2373696875,18.75,8.2732496875,18.75,9.3749996875C18.75,10.4767496875,18.3208,11.512629687499999,17.5415,12.2914996875L15.4468,14.3862296875L9.613769999999999,8.5532196875L11.7085,6.4584996875C12.5125,5.6544996874999995,13.569,5.2521996875,14.625,5.2521996875ZM14.4507,6.3757296875C13.74943,6.3757296875,13.0901,6.6482896875,12.59473,7.144039687499999C12.30185,7.4372896875,12.30185,7.9124496875,12.59473,8.205319687500001C12.8876,8.4981996875,13.3624,8.4981996875,13.65527,8.205319687500001C14.0805,7.7800696875,14.8216,7.7804496875,15.2461,8.205319687500001C15.3927,8.3515696875,15.5844,8.424319687499999,15.7764,8.424319687499999C15.9684,8.424319687499999,16.16,8.351209687499999,16.3066,8.2045896875C16.5995,7.9113396875,16.5995,7.4369196875,16.3066,7.144039687499999C15.8109,6.6482896875,15.1519,6.3757296875,14.4507,6.3757296875ZM8.55322,9.6137696875L14.3862,15.4467296875L12.29224,17.541529687500002C10.68386,19.1495296875,8.06687,19.1495296875,6.4585,17.541529687500002C5.67925,16.762629687500002,5.25,15.7267296875,5.25,14.6250296875C5.25,13.5232496875,5.67925,12.4873696875,6.4585,11.7084996875L8.55322,9.6137696875Z" fill="#000000" fill-opacity="1"/></g></g></svg>