<svg width="24" height="25" viewBox="0 0 24 25" fill="none" xmlns="http://www.w3.org/2000/svg">
<path d="M3.75 6.60791C3.75 5.36527 4.75736 4.35791 6 4.35791H8.25C9.49264 4.35791 10.5 5.36527 10.5 6.60791V8.85791C10.5 10.1006 9.49264 11.1079 8.25 11.1079H6C4.75736 11.1079 3.75 10.1006 3.75 8.85791V6.60791Z" stroke="#0F172A" stroke-width="1.5" stroke-linecap="round" stroke-linejoin="round"/>
<path d="M3.75 16.3579C3.75 15.1153 4.75736 14.1079 6 14.1079H8.25C9.49264 14.1079 10.5 15.1153 10.5 16.3579V18.6079C10.5 19.8506 9.49264 20.8579 8.25 20.8579H6C4.75736 20.8579 3.75 19.8506 3.75 18.6079V16.3579Z" stroke="#0F172A" stroke-width="1.5" stroke-linecap="round" stroke-linejoin="round"/>
<path d="M13.5 6.60791C13.5 5.36527 14.5074 4.35791 15.75 4.35791H18C19.2426 4.35791 20.25 5.36527 20.25 6.60791V8.85791C20.25 10.1006 19.2426 11.1079 18 11.1079H15.75C14.5074 11.1079 13.5 10.1006 13.5 8.85791V6.60791Z" stroke="#0F172A" stroke-width="1.5" stroke-linecap="round" stroke-linejoin="round"/>
<path d="M13.5 16.3579C13.5 15.1153 14.5074 14.1079 15.75 14.1079H18C19.2426 14.1079 20.25 15.1153 20.25 16.3579V18.6079C20.25 19.8506 19.2426 20.8579 18 20.8579H15.75C14.5074 20.8579 13.5 19.8506 13.5 18.6079V16.3579Z" stroke="#0F172A" stroke-width="1.5" stroke-linecap="round" stroke-linejoin="round"/>
</svg>
