<svg width="24" height="25" viewBox="0 0 24 25" fill="none" xmlns="http://www.w3.org/2000/svg">
<path d="M2.25 15.6079C2.25 18.0932 4.26472 20.1079 6.75 20.1079H18C20.0711 20.1079 21.75 18.429 21.75 16.3579C21.75 14.7558 20.7453 13.3884 19.3316 12.8512C19.4407 12.5403 19.5 12.2061 19.5 11.8579C19.5 10.2011 18.1569 8.85791 16.5 8.85791C16.1767 8.85791 15.8654 8.90904 15.5737 9.00366C14.9765 6.76051 12.9312 5.10791 10.5 5.10791C7.6005 5.10791 5.25 7.45842 5.25 10.3579C5.25 10.6911 5.28105 11.0171 5.3404 11.3331C3.54555 11.9246 2.25 13.615 2.25 15.6079Z" stroke="#0F172A" stroke-width="1.5" stroke-linecap="round" stroke-linejoin="round"/>
</svg>
