<svg xmlns="http://www.w3.org/2000/svg" xmlns:xlink="http://www.w3.org/1999/xlink" fill="none" version="1.1" width="24" height="24" viewBox="0 0 24 24"><defs><clipPath id="master_svg0_76_5898"><rect x="0" y="0" width="24" height="24" rx="0"/></clipPath></defs><g clip-path="url(#master_svg0_76_5898)"><g><path d="M11.249998180847168,12.750000020980835L11.249998180847168,9.000000020980835Q11.249998180847168,8.926130020980835,11.264408180847168,8.853680020980836Q11.278818180847168,8.781230020980836,11.307088180847169,8.712990020980836Q11.335358180847168,8.644740020980835,11.376398180847168,8.583320020980835Q11.417438180847167,8.521900020980835,11.469668180847169,8.469670020980836Q11.521898180847169,8.417440020980834,11.583318180847169,8.376400020980835Q11.644738180847169,8.335360020980836,11.712988180847168,8.307090020980835Q11.781228180847169,8.278820020980834,11.853678180847169,8.264410020980835Q11.926128180847169,8.250000020980835,11.999998180847168,8.250000020980835Q12.073868180847168,8.250000020980835,12.146318180847167,8.264410020980835Q12.218768180847167,8.278820020980834,12.287008180847169,8.307090020980835Q12.355258180847168,8.335360020980836,12.416668180847168,8.376400020980835Q12.478068180847169,8.417440020980834,12.530368180847168,8.469670020980836Q12.582568180847169,8.521900020980835,12.623568180847167,8.583320020980835Q12.664668180847167,8.644740020980835,12.692868180847167,8.712990020980836Q12.721168180847169,8.781230020980836,12.735568180847167,8.853680020980836Q12.749968180847167,8.926130020980835,12.749968180847167,9.000000020980835L12.749968180847167,12.750000020980835Q12.749968180847167,12.823900020980835,12.735568180847167,12.896300020980835Q12.721168180847169,12.968800020980835,12.692868180847167,13.037000020980836Q12.664668180847167,13.105300020980835,12.623568180847167,13.166700020980835Q12.582568180847169,13.228100020980834,12.530368180847168,13.280300020980835Q12.478068180847169,13.332600020980834,12.416668180847168,13.373600020980835Q12.355258180847168,13.414600020980835,12.287008180847169,13.442900020980835Q12.218768180847167,13.471200020980834,12.146318180847167,13.485600020980835Q12.073868180847168,13.500000020980835,11.999998180847168,13.500000020980835Q11.926128180847169,13.500000020980835,11.853678180847169,13.485600020980835Q11.781228180847169,13.471200020980834,11.712988180847168,13.442900020980835Q11.644738180847169,13.414600020980835,11.583318180847169,13.373600020980835Q11.521898180847169,13.332600020980834,11.469668180847169,13.280300020980835Q11.417438180847167,13.228100020980834,11.376398180847168,13.166700020980835Q11.335358180847168,13.105300020980835,11.307088180847169,13.037000020980836Q11.278818180847168,12.968800020980835,11.264408180847168,12.896300020980835Q11.249998180847168,12.823900020980835,11.249998180847168,12.750000020980835ZM11.249998180847168,15.758000020980836L11.249998180847168,15.750000020980835Q11.249998180847168,15.676100020980835,11.264408180847168,15.603700020980835Q11.278818180847168,15.531200020980835,11.307088180847169,15.463000020980836Q11.335358180847168,15.394700020980835,11.376398180847168,15.333300020980834Q11.417438180847167,15.271900020980835,11.469668180847169,15.219700020980834Q11.521898180847169,15.167400020980836,11.583318180847169,15.126400020980835Q11.644738180847169,15.085400020980835,11.712988180847168,15.057100020980835Q11.781228180847169,15.028800020980835,11.853678180847169,15.014400020980835Q11.926128180847169,15.000000020980835,11.999998180847168,15.000000020980835L12.006998180847168,15.000000020980835Q12.080868180847167,15.000000020980835,12.153318180847167,15.014400020980835Q12.225768180847169,15.028800020980835,12.294008180847168,15.057100020980835Q12.362258180847167,15.085400020980835,12.423668180847168,15.126400020980835Q12.485068180847168,15.167400020980836,12.537368180847167,15.219700020980834Q12.589568180847168,15.271900020980835,12.630568180847169,15.333300020980834Q12.671668180847169,15.394700020980835,12.699868180847169,15.463000020980836Q12.728168180847169,15.531200020980835,12.742568180847169,15.603700020980835Q12.756968180847167,15.676100020980835,12.756968180847167,15.750000020980835L12.756968180847167,15.758000020980836Q12.756968180847167,15.831900020980836,12.742568180847169,15.904300020980836Q12.728168180847169,15.976800020980836,12.699868180847169,16.045000020980837Q12.671668180847169,16.113300020980837,12.630568180847169,16.174700020980836Q12.589568180847168,16.236100020980835,12.537368180847167,16.288300020980834Q12.485068180847168,16.340600020980837,12.423668180847168,16.381600020980834Q12.362258180847167,16.422600020980838,12.294008180847168,16.450900020980836Q12.225768180847169,16.479200020980834,12.153318180847167,16.493600020980836Q12.080868180847167,16.508000020980838,12.006998180847168,16.508000020980838L11.999998180847168,16.508000020980838Q11.926128180847169,16.508000020980838,11.853678180847169,16.493600020980836Q11.781228180847169,16.479200020980834,11.712988180847168,16.450900020980836Q11.644738180847169,16.422600020980838,11.583318180847169,16.381600020980834Q11.521898180847169,16.340600020980837,11.469668180847169,16.288300020980834Q11.417438180847167,16.236100020980835,11.376398180847168,16.174700020980836Q11.335358180847168,16.113300020980837,11.307088180847169,16.045000020980837Q11.278818180847168,15.976800020980836,11.264408180847168,15.904300020980836Q11.249998180847168,15.831900020980836,11.249998180847168,15.758000020980836ZM12.749968180847167,15.758000020980836L11.999998180847168,15.758000020980836L11.999998180847168,15.008000020980836L12.006998180847168,15.008000020980836L12.006998180847168,15.758000020980836L11.256998180847168,15.758000020980836L11.256998180847168,15.750000020980835L12.006998180847168,15.750000020980835L12.006998180847168,16.500000020980835L11.999998180847168,16.500000020980835L11.999998180847168,15.750000020980835L12.749968180847167,15.750000020980835L12.749968180847167,15.758000020980836ZM10.700648180847168,3.752770020980835L3.346652180847168,16.500800020980833Q2.913643180847168,17.250800020980833,3.3465861808471677,18.000400020980834Q3.779518180847168,18.750000020980835,4.644998180847168,18.750000020980835L19.35496818084717,18.750000020980835Q20.21976818084717,18.750000020980835,20.65266818084717,18.000400020980834Q21.085768180847168,17.250600020980833,20.653268180847167,16.500700020980837L13.299368180847168,3.752770020980835Q12.866468180847168,3.003000020980835,11.999998180847168,3.003000020980835Q11.133518180847169,3.003000020980835,10.700528180847169,3.752990020980835L10.700648180847168,3.752770020980835ZM9.401478180847167,3.003008020980835Q9.820698180847167,2.276874120980835,10.540118180847168,1.878232020980835Q11.217278180847169,1.503000020980835,11.999998180847168,1.503000020980835Q12.782768180847167,1.503000020980835,13.459868180847169,1.878232020980835Q14.179268180847169,2.276874420980835,14.598668180847168,3.003232020980835L21.95266818084717,15.751300020980835Q22.371468180847167,16.477400020980834,22.35666818084717,17.299400020980833Q22.34286818084717,18.073100020980835,21.95156818084717,18.750600020980833Q21.560368180847167,19.428000020980836,20.897268180847167,19.826600020980834Q20.192768180847168,20.250000020980835,19.35496818084717,20.250000020980835L4.644998180847168,20.250000020980835Q3.806958180847168,20.250000020980835,3.102318180847168,19.826600020980834Q2.438934780847168,19.428100020980835,2.047662180847168,18.750600020980833Q1.6563291808471678,18.073000020980835,1.642725180847168,17.299200020980834Q1.628273180847168,16.477100020980835,2.047347180847168,15.751200020980836L9.401348180847169,3.003232020980835L9.401478180847167,3.003008020980835ZM12.749968180847167,12.750000020980835Q12.749968180847167,12.823900020980835,12.735568180847167,12.896300020980835Q12.721168180847169,12.968800020980835,12.692868180847167,13.037000020980836Q12.664668180847167,13.105300020980835,12.623568180847167,13.166700020980835Q12.582568180847169,13.228100020980834,12.530368180847168,13.280300020980835Q12.478068180847169,13.332600020980834,12.416668180847168,13.373600020980835Q12.355258180847168,13.414600020980835,12.287008180847169,13.442900020980835Q12.218768180847167,13.471200020980834,12.146318180847167,13.485600020980835Q12.073868180847168,13.500000020980835,11.999998180847168,13.500000020980835Q11.926128180847169,13.500000020980835,11.853678180847169,13.485600020980835Q11.781228180847169,13.471200020980834,11.712988180847168,13.442900020980835Q11.644738180847169,13.414600020980835,11.583318180847169,13.373600020980835Q11.521898180847169,13.332600020980834,11.469668180847169,13.280300020980835Q11.417438180847167,13.228100020980834,11.376398180847168,13.166700020980835Q11.335358180847168,13.105300020980835,11.307088180847169,13.037000020980836Q11.278818180847168,12.968800020980835,11.264408180847168,12.896300020980835Q11.249998180847168,12.823900020980835,11.249998180847168,12.750000020980835Q11.249998180847168,12.676100020980835,11.264408180847168,12.603700020980835Q11.278818180847168,12.531200020980835,11.307088180847169,12.463000020980836Q11.335358180847168,12.394700020980835,11.376398180847168,12.333300020980834Q11.417438180847167,12.271900020980835,11.469668180847169,12.219670020980836Q11.521898180847169,12.167430020980834,11.583318180847169,12.126400020980835Q11.644738180847169,12.085360020980835,11.712988180847168,12.057090020980835Q11.781228180847169,12.028820020980834,11.853678180847169,12.014410020980835Q11.926128180847169,12.000000020980835,11.999998180847168,12.000000020980835Q12.073868180847168,12.000000020980835,12.146318180847167,12.014410020980835Q12.218768180847167,12.028820020980834,12.287008180847169,12.057090020980835Q12.355258180847168,12.085360020980835,12.416668180847168,12.126400020980835Q12.478068180847169,12.167430020980834,12.530368180847168,12.219670020980836Q12.582568180847169,12.271900020980835,12.623568180847167,12.333300020980834Q12.664668180847167,12.394700020980835,12.692868180847167,12.463000020980836Q12.721168180847169,12.531200020980835,12.735568180847167,12.603700020980835Q12.749968180847167,12.676100020980835,12.749968180847167,12.750000020980835ZM12.749968180847167,9.000000020980835Q12.749968180847167,9.073870020980834,12.735568180847167,9.146320020980834Q12.721168180847169,9.218770020980834,12.692868180847167,9.287010020980835Q12.664668180847167,9.355260020980836,12.623568180847167,9.416680020980834Q12.582568180847169,9.478100020980836,12.530368180847168,9.530330020980834Q12.478068180847169,9.582560020980836,12.416668180847168,9.623600020980835Q12.355258180847168,9.664640020980835,12.287008180847169,9.692910020980836Q12.218768180847167,9.721180020980835,12.146318180847167,9.735590020980835Q12.073868180847168,9.750000020980835,11.999998180847168,9.750000020980835Q11.926128180847169,9.750000020980835,11.853678180847169,9.735590020980835Q11.781228180847169,9.721180020980835,11.712988180847168,9.692910020980836Q11.644738180847169,9.664640020980835,11.583318180847169,9.623600020980835Q11.521898180847169,9.582560020980836,11.469668180847169,9.530330020980834Q11.417438180847167,9.478100020980836,11.376398180847168,9.416680020980834Q11.335358180847168,9.355260020980836,11.307088180847169,9.287010020980835Q11.278818180847168,9.218770020980834,11.264408180847168,9.146320020980834Q11.249998180847168,9.073870020980834,11.249998180847168,9.000000020980835Q11.249998180847168,8.926130020980835,11.264408180847168,8.853680020980836Q11.278818180847168,8.781230020980836,11.307088180847169,8.712990020980836Q11.335358180847168,8.644740020980835,11.376398180847168,8.583320020980835Q11.417438180847167,8.521900020980835,11.469668180847169,8.469670020980836Q11.521898180847169,8.417440020980834,11.583318180847169,8.376400020980835Q11.644738180847169,8.335360020980836,11.712988180847168,8.307090020980835Q11.781228180847169,8.278820020980834,11.853678180847169,8.264410020980835Q11.926128180847169,8.250000020980835,11.999998180847168,8.250000020980835Q12.073868180847168,8.250000020980835,12.146318180847167,8.264410020980835Q12.218768180847167,8.278820020980834,12.287008180847169,8.307090020980835Q12.355258180847168,8.335360020980836,12.416668180847168,8.376400020980835Q12.478068180847169,8.417440020980834,12.530368180847168,8.469670020980836Q12.582568180847169,8.521900020980835,12.623568180847167,8.583320020980835Q12.664668180847167,8.644740020980835,12.692868180847167,8.712990020980836Q12.721168180847169,8.781230020980836,12.735568180847167,8.853680020980836Q12.749968180847167,8.926130020980835,12.749968180847167,9.000000020980835Z" fill="#000000" fill-opacity="1"/></g></g></svg>