<svg xmlns="http://www.w3.org/2000/svg" xmlns:xlink="http://www.w3.org/1999/xlink" fill="none" version="1.1" width="19.715999603271484" height="19.25" viewBox="0 0 19.715999603271484 19.25"><g><path d="M10.981,10.374L3.481,10.374Q3.40713,10.374,3.33468,10.35959Q3.26223,10.34518,3.19399,10.31691Q3.12574,10.28864,3.06432,10.2476Q3.0029,10.20656,2.95067,10.15433Q2.89844,10.1021,2.8574,10.04068Q2.81636,9.97926,2.78809,9.91101Q2.75982,9.84277,2.7454099999999997,9.77032Q2.731,9.69787,2.731,9.624Q2.731,9.55013,2.7454099999999997,9.47768Q2.75982,9.40523,2.78809,9.33699Q2.81636,9.26874,2.8574,9.20732Q2.89844,9.1459,2.95067,9.09367Q3.0029,9.04144,3.06432,9.0004Q3.12574,8.95936,3.19399,8.93109Q3.26223,8.90282,3.33468,8.88841Q3.40713,8.874,3.481,8.874L10.981,8.874Q11.0549,8.874,11.1273,8.88841Q11.1998,8.90282,11.268,8.93109Q11.3363,8.95936,11.3977,9.0004Q11.4591,9.04144,11.5113,9.09367Q11.5636,9.1459,11.6046,9.20732Q11.6456,9.26874,11.6739,9.33699Q11.7022,9.40523,11.7166,9.47768Q11.731,9.55013,11.731,9.624Q11.731,9.69787,11.7166,9.77032Q11.7022,9.84277,11.6739,9.91101Q11.6456,9.97926,11.6046,10.04068Q11.5636,10.1021,11.5113,10.15433Q11.4591,10.20656,11.3977,10.2476Q11.3363,10.28864,11.268,10.31691Q11.1998,10.34518,11.1273,10.35959Q11.0549,10.374,10.981,10.374ZM3.48,8.874L3.481,8.874L3.481,9.624L2.76418,9.8446L0.03317800000000004,0.970604Q0.01144999999999996,0.900003,0.003913999999999973,0.8265202Q-0.003623000000000043,0.75303716,0.0033210000000000184,0.6794957Q0.010264999999999969,0.605954,0.03142299999999998,0.535181Q0.05258099999999999,0.464407,0.08714,0.399121Q0.12169799999999997,0.333835,0.16832899999999995,0.276545Q0.21496099999999996,0.219256,0.271873,0.17216399999999998Q0.328784,0.125073,0.39379,0.08998899999999999Q0.458795,0.05490600000000001,0.529396,0.03317800000000004Q0.74390599,-0.032838000000000034,0.959418,0.029831000000000052Q10.9544,2.93628,19.404,9.01519Q19.464,9.05832,19.5144,9.11233Q19.5648,9.16634,19.6036,9.22915Q19.6425,9.29195,19.6684,9.36113Q19.6943,9.43031,19.7062,9.50322Q19.7181,9.57612,19.7155,9.64995Q19.713,9.72377,19.6961,9.79568Q19.6792,9.86758,19.6486,9.93481Q19.618,10.00204,19.5748,10.062Q19.5034,10.16131,19.4041,10.23277Q10.9552,16.3126,0.960503,19.2201Q0.889575,19.2408,0.8159836,19.2472Q0.74239273,19.2536,0.6689673,19.2455Q0.595542,19.2374,0.525103,19.2152Q0.454665,19.1929,0.389921,19.1574Q0.325176,19.1218,0.268614,19.0743Q0.21205200000000002,19.0268,0.16584500000000002,18.9691Q0.11963900000000005,18.9115,0.08556399999999997,18.846Q0.05148900000000001,18.7804,0.030854999999999966,18.7095Q-0.03182099999999999,18.4941,0.03411900000000001,18.2796L2.76312,9.40359Q2.78069,9.34645,2.80708,9.29282Q2.83348,9.23919,2.86803,9.19042Q2.90259,9.14164,2.94443,9.09896Q2.98628,9.05627,3.03436,9.02076Q3.08244,8.98524,3.13554,8.95778Q3.18863,8.93033,3.24541,8.91163Q3.30218,8.89294,3.3612,8.88347Q3.42022,8.874,3.48,8.874ZM3.48,10.374L3.48,9.624L4.19688,9.84441L1.467881,18.7204L0.750999928,18.5L0.5415,17.7799Q10.28842,14.9443,18.5279,9.01523L18.966,9.624L18.528,10.23281Q10.28785,4.30457,0.540582,1.47017L0.75,0.75L1.466822,0.529396L4.19782,9.4034Q4.231,9.5112,4.231,9.624Q4.231,9.69787,4.21659,9.77032Q4.20218,9.84277,4.173909999999999,9.91101Q4.14564,9.97926,4.1046,10.04068Q4.06356,10.1021,4.01133,10.15433Q3.9591,10.20656,3.89768,10.2476Q3.83626,10.28864,3.76801,10.31691Q3.69977,10.34518,3.62732,10.35959Q3.55487,10.374,3.481,10.374L3.48,10.374ZM11.731,9.624Q11.731,9.69787,11.7166,9.77032Q11.7022,9.84277,11.6739,9.91101Q11.6456,9.97926,11.6046,10.04068Q11.5636,10.1021,11.5113,10.15433Q11.4591,10.20656,11.3977,10.2476Q11.3363,10.28864,11.268,10.31691Q11.1998,10.34518,11.1273,10.35959Q11.0549,10.374,10.981,10.374Q10.9071,10.374,10.8347,10.35959Q10.7622,10.34518,10.69399,10.31691Q10.62574,10.28864,10.56432,10.2476Q10.5029,10.20656,10.45067,10.15433Q10.39844,10.1021,10.3574,10.04068Q10.31636,9.97926,10.28809,9.91101Q10.25982,9.84277,10.24541,9.77032Q10.231,9.69787,10.231,9.624Q10.231,9.55013,10.24541,9.47768Q10.25982,9.40523,10.28809,9.33699Q10.31636,9.26874,10.3574,9.20732Q10.39844,9.1459,10.45067,9.09367Q10.5029,9.04144,10.56432,9.0004Q10.62574,8.95936,10.69399,8.93109Q10.7622,8.90282,10.8347,8.88841Q10.9071,8.874,10.981,8.874Q11.0549,8.874,11.1273,8.88841Q11.1998,8.90282,11.268,8.93109Q11.3363,8.95936,11.3977,9.0004Q11.4591,9.04144,11.5113,9.09367Q11.5636,9.1459,11.6046,9.20732Q11.6456,9.26874,11.6739,9.33699Q11.7022,9.40523,11.7166,9.47768Q11.731,9.55013,11.731,9.624ZM4.231,9.624Q4.231,9.69787,4.21659,9.77032Q4.20218,9.84277,4.173909999999999,9.91101Q4.14564,9.97926,4.1046,10.04068Q4.06356,10.1021,4.01133,10.15433Q3.9591,10.20656,3.89768,10.2476Q3.83626,10.28864,3.76801,10.31691Q3.69977,10.34518,3.62732,10.35959Q3.55487,10.374,3.481,10.374Q3.40713,10.374,3.33468,10.35959Q3.26223,10.34518,3.19399,10.31691Q3.12574,10.28864,3.06432,10.2476Q3.0029,10.20656,2.95067,10.15433Q2.89844,10.1021,2.8574,10.04068Q2.81636,9.97926,2.78809,9.91101Q2.75982,9.84277,2.7454099999999997,9.77032Q2.731,9.69787,2.731,9.624Q2.731,9.55013,2.7454099999999997,9.47768Q2.75982,9.40523,2.78809,9.33699Q2.81636,9.26874,2.8574,9.20732Q2.89844,9.1459,2.95067,9.09367Q3.0029,9.04144,3.06432,9.0004Q3.12574,8.95936,3.19399,8.93109Q3.26223,8.90282,3.33468,8.88841Q3.40713,8.874,3.481,8.874Q3.55487,8.874,3.62732,8.88841Q3.69977,8.90282,3.76801,8.93109Q3.83626,8.95936,3.89768,9.0004Q3.9591,9.04144,4.01133,9.09367Q4.06356,9.1459,4.1046,9.20732Q4.14564,9.26874,4.173909999999999,9.33699Q4.20218,9.40523,4.21659,9.47768Q4.231,9.55013,4.231,9.624Z" fill="#000000" fill-opacity="1"/></g></svg>