<svg xmlns="http://www.w3.org/2000/svg" xmlns:xlink="http://www.w3.org/1999/xlink" fill="none" version="1.1" width="24" height="24" viewBox="0 0 24 24"><defs><clipPath id="master_svg0_344_02406"><rect x="0" y="0" width="24" height="24" rx="0"/></clipPath></defs><g clip-path="url(#master_svg0_344_02406)"><g><path d="M12,2.250000000004209C9.571,2.250000000004209,7.183,2.427999615814209,4.848,2.770999615814209C2.87,3.060999615814209,1.5,4.794997615814209,1.5,6.740997615814209L1.5,12.75899761581421C1.5,14.704997615814209,2.87,16.43899761581421,4.848,16.728997615814208C5.725,16.85799761581421,6.609,16.96299761581421,7.5,17.04499761581421L7.5,20.99999761581421C7.50027,21.30309761581421,7.68299,21.57629761581421,7.96308,21.69229761581421C8.24316,21.808297615814208,8.56551,21.74419761581421,8.780000000000001,21.52999761581421L12.964,17.34699761581421C13.0351,17.27699761581421,13.1303,17.236897615814208,13.23,17.23499761581421C15.236,17.18499761581421,17.212,17.01499761581421,19.152,16.728997615814208C21.13,16.43899761581421,22.5,14.705997615814209,22.5,12.75899761581421L22.5,6.740997615814209C22.5,4.7939976158142095,21.13,3.060999615814209,19.152,2.771000615814209C16.7839,2.423402615814209,14.3935,2.249272584814209,12,2.250000000004209ZM8.25,8.624997615814209C7.62868,8.624997615814209,7.125,9.128677615814208,7.125,9.749997615814209C7.125,10.37131761581421,7.62868,10.874997615814209,8.25,10.874997615814209C8.87132,10.874997615814209,9.375,10.37131761581421,9.375,9.749997615814209C9.375,9.128677615814208,8.87132,8.624997615814209,8.25,8.624997615814209ZM10.875,9.749997615814209C10.875,9.128677615814208,11.37868,8.624997615814209,12,8.624997615814209C12.6213,8.624997615814209,13.125,9.128677615814208,13.125,9.749997615814209C13.125,10.37131761581421,12.6213,10.874997615814209,12,10.874997615814209C11.37868,10.874997615814209,10.875,10.37131761581421,10.875,9.749997615814209ZM15.75,8.624997615814209C15.1287,8.624997615814209,14.625,9.128677615814208,14.625,9.749997615814209C14.625,10.37131761581421,15.1287,10.874997615814209,15.75,10.874997615814209C16.371299999999998,10.874997615814209,16.875,10.37131761581421,16.875,9.749997615814209C16.875,9.128677615814208,16.371299999999998,8.624997615814209,15.75,8.624997615814209Z" fill-rule="evenodd" fill="#000000" fill-opacity="1"/></g></g></svg>