<svg width="24" height="25" viewBox="0 0 24 25" fill="none" xmlns="http://www.w3.org/2000/svg">
<path d="M12 20.8579C16.9706 20.8579 21 17.1643 21 12.6079C21 8.05156 16.9706 4.35791 12 4.35791C7.02944 4.35791 3 8.05156 3 12.6079C3 14.7115 3.85891 16.6313 5.2728 18.0885C5.70538 18.5344 6.01357 19.1271 5.85933 19.7289C5.68829 20.3962 5.368 21.0038 4.93579 21.5139C5.0918 21.5418 5.25 21.5637 5.40967 21.5793C5.60376 21.5982 5.80078 21.6079 6 21.6079C7.28201 21.6079 8.47016 21.2058 9.44517 20.5208C10.2551 20.7402 11.1125 20.8579 12 20.8579Z" stroke="#0F172A" stroke-width="1.5" stroke-linecap="round" stroke-linejoin="round"/>
</svg>
